<svg xmlns="http://www.w3.org/2000/svg" version="1.1" xmlns:xlink="http://www.w3.org/1999/xlink" viewBox="0 0 200 200"><rect width="200" height="200" fill="url('#gradient')"></rect><defs><linearGradient id="gradient" gradientTransform="rotate(45 0.5 0.5)"><stop offset="0%" stop-color="#52dfec"></stop><stop offset="100%" stop-color="#6d50de"></stop></linearGradient></defs><g><g fill="#ffffff" transform="matrix(5.2995974698102355,0,0,5.2995974698102355,4.314124207787302,137.67951358440897)" stroke="#1b5f6f" stroke-width="0.5"><path d="M5.75 0L1.07 0L1.07-14.22L5.65-14.22Q7.54-14.22 9.04-13.36Q10.55-12.51 11.39-10.95Q12.24-9.39 12.25-7.46L12.25-7.46L12.25-6.81Q12.25-4.85 11.42-3.31Q10.60-1.76 9.10-0.88Q7.60-0.01 5.75 0L5.75 0ZM5.65-11.57L4.50-11.57L4.50-2.64L5.69-2.64Q7.17-2.64 7.96-3.69Q8.75-4.74 8.75-6.81L8.75-6.81L8.75-7.42Q8.75-9.48 7.96-10.53Q7.17-11.57 5.65-11.57L5.65-11.57ZM23.04-14.22L25.02-5.30L26.65-14.22L30.05-14.22L27.03 0L23.48 0L21.57-8.11L19.71 0L16.16 0L13.13-14.22L16.54-14.22L18.17-5.30L20.13-14.22L23.04-14.22ZM35.04-14.22L35.04 0L31.62 0L31.62-14.22L35.04-14.22Z"></path></g></g></svg>